<?xml version="1.0" encoding="iso-8859-1"?>
<!-- Generator: Adobe Illustrator 18.1.1, SVG Export Plug-In . SVG Version: 6.00 Build 0)  -->
<svg version="1.1" id="Capa_1" xmlns="http://www.w3.org/2000/svg" xmlns:xlink="http://www.w3.org/1999/xlink" x="0px" y="0px"
	 viewBox="0 0 30.307 30.307" style="enable-background:new 0 0 30.307 30.307;" xml:space="preserve">
<g>
	<path d="M30.048,16.717l-6.829,5.766c0,0-0.81,0.854-0.806-0.075c0-0.933,0-3.185,0-3.185s-0.551,0-1.389,0
		c-1.646,0-9.293,0-15.182,0c0,0.002,0,0.006,0,0.007H0.45H0.375c-0.134-0.011-0.337-0.104-0.365-0.522H0v-4.833h0.01
		c0.002-3.923,0.002-5.191,0.002-5.921c0,0-0.128-0.486,0.604-0.488c0.737,0,4.192,0.002,4.716,0.002
		c0.521-0.002,0.514,0.409,0.514,0.409c0,0.687,0,1.752,0,5.513c5.911,0,13.535,0.002,15.12,0.006c0.751-0.006,1.24,0,1.24,0
		s0-1.805,0-2.939c0-1.136,0.855-0.279,0.855-0.279s6.373,4.921,7.045,5.591C30.589,16.253,30.048,16.717,30.048,16.717z"/>
</g>
<g>
</g>
<g>
</g>
<g>
</g>
<g>
</g>
<g>
</g>
<g>
</g>
<g>
</g>
<g>
</g>
<g>
</g>
<g>
</g>
<g>
</g>
<g>
</g>
<g>
</g>
<g>
</g>
<g>
</g>
</svg>
