<?xml version="1.0" encoding="utf-8"?>
<!-- Svg Vector Icons : http://www.onlinewebfonts.com/icon -->
<!DOCTYPE svg PUBLIC "-//W3C//DTD SVG 1.1//EN" "http://www.w3.org/Graphics/SVG/1.1/DTD/svg11.dtd">
<svg version="1.1" xmlns="http://www.w3.org/2000/svg" xmlns:xlink="http://www.w3.org/1999/xlink" x="0px" y="0px" viewBox="0 0 1000 1000" enable-background="new 0 0 1000 1000" xml:space="preserve">
<metadata> Svg Vector Icons : http://www.onlinewebfonts.com/icon </metadata>
<g><path d="M645.9,566.9H247.3c-7.3,0-13.1,9.7-13.1,21.7c0,12,5.9,21.7,13.1,21.7h398.6c7.2,0,13.1-9.7,13.1-21.7C658.9,576.6,653.1,566.9,645.9,566.9L645.9,566.9z"/><path d="M645.9,466.7H247.3c-7.3,0-13.1,9.7-13.1,21.7c0,12,5.9,21.7,13.1,21.7h398.6c7.2,0,13.1-9.7,13.1-21.7C658.9,476.4,653.1,466.7,645.9,466.7L645.9,466.7z"/><path d="M645.9,366.7H247.3c-7.3,0-13.1,9.7-13.1,21.7c0,12,5.9,21.7,13.1,21.7h398.6c7.2,0,13.1-9.7,13.1-21.7C658.9,376.3,653.1,366.7,645.9,366.7L645.9,366.7z"/><path d="M929.1,133.5C929.1,65.4,873.2,10,804.5,10H193.9c-0.3,0-0.5,0-0.8,0.1c-0.3,0-0.6-0.1-0.8-0.1C125.3,10,70.9,65.4,70.9,133.5v722c0,9.1,3.6,17.8,10,24l99.1,97.3c12.7,12.5,32.8,12.5,45.5,0l101.1-99.3l104.9,103c12.7,12.5,32.8,12.5,45.5,0l104.9-103l104.9,103c6.4,6.2,14.6,9.4,22.7,9.4c8.2,0,16.4-3.1,22.8-9.4l94.9-93.2c6.4-6.3,10-15,10-24V252.6C890.1,238.2,929.1,190.3,929.1,133.5L929.1,133.5z M715.7,920.3L608.3,814.8c-13-12.8-33.6-12.8-46.6,0L454.3,920.3L346.9,814.8c-13-12.8-33.6-12.8-46.6,0L196.8,916.4l-67.9-66.7V124.9c0-32.1,25.6-58.1,57.1-58.1c0.3,0,0.5-0.1,0.8-0.1c0.3,0,0.6,0.1,0.9,0.1h0.1c33.3,0.1,60.3,26.1,60.3,58.1c0,32-27.1,58.1-60.4,58.1c-18.5,0-33.6,15.3-33.6,34.2c0,18.9,15,34.2,33.6,34.2h591.7v606.3L715.7,920.3L715.7,920.3z M790.7,196.9L268,193.5c31.8-15.4,31.9-46.5,31.8-55.8c-0.1-34.8-5.4-50.3-14.4-67.4l523.3-0.9c32.8,0,67.1,34.1,67.1,65.7c0,31.6-34.7,60.2-67.5,60.2L790.7,196.9z"/></g>
</svg>