<?xml version="1.0" encoding="utf-8"?>
<!-- Svg Vector Icons : http://www.onlinewebfonts.com/icon -->
<!DOCTYPE svg PUBLIC "-//W3C//DTD SVG 1.1//EN" "http://www.w3.org/Graphics/SVG/1.1/DTD/svg11.dtd">
<svg version="1.1" xmlns="http://www.w3.org/2000/svg" xmlns:xlink="http://www.w3.org/1999/xlink" x="0px" y="0px" viewBox="0 0 1000 1000" enable-background="new 0 0 1000 1000" xml:space="preserve">
<metadata> Svg Vector Icons : http://www.onlinewebfonts.com/icon </metadata>
<g><g transform="translate(0.000000,511.000000) scale(0.100000,-0.100000)"><path d="M4866,4827.2c-33.5-31.4-278.5-554.8-714-1534.7c-364.3-816.6-672.1-1494.9-682.6-1505.4s-732.8-102.6-1603.8-205.2C992.6,1479.3,251.4,1385.1,220,1372.5c-92.1-35.6-146.6-175.9-106.8-276.4c10.5-25.1,1832-1748.3,2338.7-2211l79.6-73.3l-324.5-1635.2c-351.8-1767.1-345.5-1721.1-232.4-1796.5c121.4-79.6,119.3-79.6,1585,764.2c762.1,439.7,1400.7,804,1423.7,808.2c23,8.4,544.4-282.7,1438.4-797.7c1185.1-682.5,1415.4-808.2,1484.5-808.2c87.9,0,161.2,52.3,192.6,138.2c14.6,39.8-58.6,450.2-305.7,1689.7l-324.5,1637.3l79.6,73.3C8056.9-650,9876.3,1071,9886.8,1096.2c39.8,100.5-14.7,240.8-106.8,276.4c-31.4,12.6-760,104.7-1618.5,203.1c-858.4,100.5-1578.7,188.4-1601.7,196.8c-31.4,12.6-219.8,418.8-707.7,1511.7c-437.6,984.1-684.7,1511.7-718.2,1543.1c-35.6,31.4-79.6,46.1-134,46.1C4945.6,4873.3,4901.6,4858.6,4866,4827.2z M5513,2993.1c709.8-1595.4,705.6-1582.9,776.8-1612.2c33.5-12.6,682.6-94.2,1442.6-182.2c760-87.9,1398.6-165.4,1419.6-173.8c33.5-12.6-136.1-182.2-910.8-904.5C6932.5-1106.5,7030.9-1008.1,7030.9-1100.2c0-41.9,127.7-716.1,282.7-1494.9c154.9-778.9,278.5-1419.6,276.4-1421.6c-2.1-4.2-567.4,320.3-1256.3,716c-688.8,397.8-1283.5,728.7-1319,732.8c-58.6,8.4-238.7-90-1333.7-722.4c-697.2-402-1268.8-730.7-1270.9-726.5c-2.1,2.1,121.4,642.8,276.4,1423.7c154.9,781,282.7,1453,282.7,1494.9c0,90,123.5-35.6-1212.3,1218.6C984.2,842.8,814.6,1012.4,848.1,1025c20.9,8.4,659.5,85.8,1419.6,173.8s1409.1,169.6,1442.6,182.2c71.2,29.3,48.2-20.9,768.4,1591.2c280.6,632.3,515.1,1147.4,521.3,1147.4C5006.3,4119.5,5236.6,3612.8,5513,2993.1z"/></g></g>
</svg>