<?xml version="1.0" encoding="utf-8"?>
<!-- Svg Vector Icons : http://www.onlinewebfonts.com/icon -->
<!DOCTYPE svg PUBLIC "-//W3C//DTD SVG 1.1//EN" "http://www.w3.org/Graphics/SVG/1.1/DTD/svg11.dtd">
<svg version="1.1" xmlns="http://www.w3.org/2000/svg" xmlns:xlink="http://www.w3.org/1999/xlink" x="0px" y="0px" viewBox="0 0 1000 1000" enable-background="new 0 0 1000 1000" xml:space="preserve">
<metadata> Svg Vector Icons : http://www.onlinewebfonts.com/icon </metadata>
<g><path d="M150,989.5c-76.9,0-139.5-62.6-139.5-139.5V220c0-76.9,62.6-139.5,139.5-139.5h69.5v69H150c-38.9,0-70.5,31.6-70.5,70.5v630c0,38.9,31.6,70.5,70.5,70.5h700c38.9,0,70.5-31.6,70.5-70.5V220c0-38.9-31.6-70.5-70.5-70.5h-69.5v-69H850c76.9,0,139.5,62.6,139.5,139.5v630c0,76.9-62.6,139.5-139.5,139.5L150,989.5L150,989.5z M325,779.5c-19,0-34.5-15.5-34.5-34.5c0-19,15.5-34.5,34.5-34.5h350c19,0,34.5,15.5,34.5,34.5c0,19-15.5,34.5-34.5,34.5H325L325,779.5z M325,569.5c-19,0-34.5-15.5-34.5-34.5s15.5-34.5,34.5-34.5h350c19,0,34.5,15.5,34.5,34.5S694,569.5,675,569.5H325L325,569.5z M185,359.5c-19,0-34.5-15.5-34.5-34.5c0-19,15.5-34.5,34.5-34.5h630c19,0,34.5,15.5,34.5,34.5c0,19-15.5,34.5-34.5,34.5H185L185,359.5z M675,219.5c-19,0-34.5-15.5-34.5-34.5V45c0-19,15.5-34.5,34.5-34.5c19,0,34.5,15.5,34.5,34.5v140C709.5,204,694,219.5,675,219.5L675,219.5z M325,219.5c-19,0-34.5-15.5-34.5-34.5V45c0-19,15.5-34.5,34.5-34.5c19,0,34.5,15.5,34.5,34.5v140C359.5,204,344,219.5,325,219.5L325,219.5z M430.5,149.5v-69h139v69H430.5L430.5,149.5z"/><path d="M675,11c18.8,0,34,15.3,34,34v140c0,18.8-15.3,34-34,34c-18.8,0-34-15.3-34-34V45C641,26.2,656.2,11,675,11 M325,11c18.8,0,34,15.3,34,34v140c0,18.8-15.3,34-34,34c-18.8,0-34-15.3-34-34V45C291,26.2,306.2,11,325,11 M850,81c37.1,0,72,14.5,98.3,40.7c26.3,26.2,40.7,61.2,40.7,98.3v630c0,37.1-14.5,72-40.7,98.3C922,974.6,887.1,989,850,989H150c-37.1,0-72-14.5-98.3-40.7C25.4,922,11,887.1,11,850V220c0-37.1,14.5-72.1,40.7-98.3C78,95.4,112.9,81,150,81h69v68h-69c-39.1,0-71,31.8-71,71v630c0,39.1,31.8,71,71,71h700c39.1,0,71-31.8,71-71V220c0-39.1-31.8-71-71-71h-69V81L850,81 M569,81v68H431V81H569 M815,291c18.8,0,34,15.3,34,34c0,18.8-15.3,34-34,34H185c-18.8,0-34-15.3-34-34c0-18.8,15.3-34,34-34H815 M675,501c18.8,0,34,15.3,34,34c0,18.8-15.3,34-34,34H325c-18.8,0-34-15.3-34-34c0-18.8,15.3-34,34-34H675 M675,711c18.8,0,34,15.3,34,34c0,18.8-15.3,34-34,34H325c-18.8,0-34-15.3-34-34c0-18.8,15.3-34,34-34H675 M675,10c-19.3,0-35,15.7-35,35v140c0,19.3,15.7,35,35,35c19.3,0,35-15.7,35-35V45C710,25.7,694.3,10,675,10L675,10L675,10z M325,10c-19.3,0-35,15.7-35,35v140c0,19.3,15.7,35,35,35c19.3,0,35-15.7,35-35V45C360,25.7,344.3,10,325,10L325,10L325,10z M850,80h-70v70h70c38.7,0,70,31.3,70,70v630c0,38.7-31.3,70-70,70l-700,0c-38.7,0-70-31.3-70-70V220c0-38.7,31.3-70,70-70h70V80h-70C72.7,80,10,142.7,10,220v630c0,77.3,62.7,140,140,140h700c77.3,0,140-62.7,140-140V220C990,142.7,927.3,80,850,80L850,80L850,80z M570,80H430v70h140V80L570,80L570,80z M815,290H185c-19.3,0-35,15.7-35,35c0,19.3,15.7,35,35,35h630c19.3,0,35-15.7,35-35C850,305.7,834.3,290,815,290L815,290L815,290z M675,500H325c-19.3,0-35,15.7-35,35c0,19.3,15.7,35,35,35h350c19.3,0,35-15.7,35-35C710,515.7,694.3,500,675,500L675,500L675,500z M675,710H325c-19.3,0-35,15.7-35,35s15.7,35,35,35h350c19.3,0,35-15.7,35-35S694.3,710,675,710L675,710L675,710z"/></g>
</svg>